<?xml version="1.0" encoding="UTF-8" standalone="no"?>
<!-- Created with Inkscape (http://www.inkscape.org/) -->

<svg
   xmlns:dc="http://purl.org/dc/elements/1.1/"
   xmlns:cc="http://creativecommons.org/ns#"
   xmlns:rdf="http://www.w3.org/1999/02/22-rdf-syntax-ns#"
   xmlns:svg="http://www.w3.org/2000/svg"
   xmlns="http://www.w3.org/2000/svg"
   xmlns:sodipodi="http://sodipodi.sourceforge.net/DTD/sodipodi-0.dtd"
   xmlns:inkscape="http://www.inkscape.org/namespaces/inkscape"
   width="210mm"
   height="297mm"
   viewBox="0 0 210 297"
   version="1.1"
   id="svg4664"
   inkscape:version="0.92.1 r15371"
   sodipodi:docname="logo_todo_imagen.svg"
   inkscape:export-filename="C:\Users\johnn\Desktop\Logo.png"
   inkscape:export-xdpi="96"
   inkscape:export-ydpi="96">
  <defs
     id="defs4658" />
  <sodipodi:namedview
     id="base"
     pagecolor="#ffffff"
     bordercolor="#666666"
     borderopacity="1.0"
     inkscape:pageopacity="0.0"
     inkscape:pageshadow="2"
     inkscape:zoom="0.98994949"
     inkscape:cx="242.08357"
     inkscape:cy="676.1675"
     inkscape:document-units="mm"
     inkscape:current-layer="flowRoot4625"
     showgrid="false"
     inkscape:window-width="1920"
     inkscape:window-height="1017"
     inkscape:window-x="-8"
     inkscape:window-y="-8"
     inkscape:window-maximized="1" />
  <metadata
     id="metadata4661">
    <rdf:RDF>
      <cc:Work
         rdf:about="">
        <dc:format>image/svg+xml</dc:format>
        <dc:type
           rdf:resource="http://purl.org/dc/dcmitype/StillImage" />
        <dc:title></dc:title>
      </cc:Work>
    </rdf:RDF>
  </metadata>
  <g
     inkscape:label="Capa 1"
     inkscape:groupmode="layer"
     id="layer1">
    <path
       style="fill:#cccccc;fill-opacity:1;stroke:#cccccc;stroke-width:0.56805468px;stroke-linecap:butt;stroke-linejoin:miter;stroke-opacity:1"
       d="m 52.778107,84.806183 -47.5954848,-0.0983 c 0,0 -10.6697404,41.314207 4.3934396,52.823157 15.0631812,11.50894 24.4776652,13.27956 52.6165292,13.77139 13.089655,0.22878 -8.150439,2.01893 -14.507861,-11.91544 -3.488153,-7.64547 -3.799354,-19.02259 -2.545139,-29.49736 1.373905,-11.474182 4.626154,-21.865637 7.638516,-25.083387 z"
       id="path4615"
       inkscape:connector-curvature="0"
       sodipodi:nodetypes="ccsssscc" />
    <g
       aria-label="onathan"
       transform="matrix(0.26458333,0,0,0.26458333,17.853655,75.551292)"
       style="font-style:normal;font-weight:normal;font-size:74.66666412px;line-height:1.25;font-family:sans-serif;letter-spacing:0px;word-spacing:0px;fill:#cccccc;fill-opacity:1;stroke:none"
       id="flowRoot4625">
      <path
         d="m 342.33724,259.47222 q 0,10.09896 -5.90625,15.9323 -5.86979,5.79687 -16.51563,5.79687 -10.64583,0 -16.55208,-5.79687 -5.86979,-5.83334 -5.86979,-15.9323 0,-10.17187 5.90625,-15.96874 5.94271,-5.79688 16.51562,-5.79688 10.71875,0 16.55209,5.83333 5.86979,5.83334 5.86979,15.93229 z m -16.15104,9.95313 q 1.27604,-1.56771 1.89583,-3.75521 0.65625,-2.22396 0.65625,-6.125 0,-3.60937 -0.65625,-6.05208 -0.65625,-2.44271 -1.82292,-3.90104 -1.16666,-1.4948 -2.80729,-2.11459 -1.64062,-0.61979 -3.53646,-0.61979 -1.89583,0 -3.39062,0.51042 -1.45833,0.51041 -2.80729,2.04166 -1.20313,1.42188 -1.93229,3.90105 -0.69271,2.47916 -0.69271,6.23437 0,3.35417 0.61979,5.83333 0.61979,2.44271 1.82292,3.9375 1.16666,1.42188 2.77083,2.07813 1.64062,0.65625 3.71875,0.65625 1.78646,0 3.39062,-0.58333 1.64063,-0.6198 2.77084,-2.04167 z"
         style="font-style:normal;font-variant:normal;font-weight:bold;font-stretch:normal;font-size:74.66666412px;font-family:sans-serif;-inkscape-font-specification:'sans-serif Bold';fill:#cccccc;fill-opacity:1"
         id="path4751" />
      <path
         d="m 392.9414,279.92535 h -13.19791 v -20.30729 q 0,-2.47917 -0.25521,-4.92188 -0.25521,-2.47916 -0.875,-3.64583 -0.72917,-1.34896 -2.15104,-1.96875 -1.38542,-0.61979 -3.90104,-0.61979 -1.78646,0 -3.64584,0.58333 -1.82291,0.58333 -3.97396,1.85938 v 29.02083 h -13.125 v -40.94271 h 13.125 v 4.52084 q 3.5,-2.73438 6.70834,-4.19271 3.24479,-1.45834 7.18229,-1.45834 6.63542,0 10.35417,3.86459 3.7552,3.86458 3.7552,11.55729 z"
         style="font-style:normal;font-variant:normal;font-weight:bold;font-stretch:normal;font-size:74.66666412px;font-family:sans-serif;-inkscape-font-specification:'sans-serif Bold';fill:#cccccc;fill-opacity:1"
         id="path4753" />
      <path
         d="m 429.83724,269.24306 v -8.53125 q -2.66146,0.21875 -5.76042,0.61979 -3.09896,0.36458 -4.70312,0.875 -1.96875,0.61979 -3.02604,1.82292 -1.02084,1.16666 -1.02084,3.09895 0,1.27605 0.21875,2.07813 0.21875,0.80208 1.09375,1.53125 0.83854,0.72917 2.00521,1.09375 1.16667,0.32812 3.64583,0.32812 1.96875,0 3.97396,-0.80208 2.04167,-0.80208 3.57292,-2.11458 z m 0,6.34375 q -1.05729,0.80208 -2.625,1.93229 -1.56771,1.13021 -2.95313,1.78646 -1.93229,0.875 -4.01041,1.27604 -2.07813,0.4375 -4.55729,0.4375 -5.83334,0 -9.77084,-3.60938 -3.9375,-3.60937 -3.9375,-9.22395 0,-4.48438 2.00521,-7.32813 2.00521,-2.84375 5.6875,-4.48437 3.64583,-1.64063 9.04167,-2.33334 5.39583,-0.69271 11.19271,-1.02083 v -0.21875 q 0,-3.39063 -2.77084,-4.66667 -2.77083,-1.3125 -8.16666,-1.3125 -3.2448,0 -6.92709,1.16667 -3.68229,1.13021 -5.28646,1.75 h -1.20312 v -9.88021 q 2.07812,-0.54687 6.74479,-1.27604 4.70313,-0.76562 9.40625,-0.76562 11.19271,0 16.15104,3.46354 4.99479,3.42708 4.99479,10.79166 v 27.85417 h -13.01562 z"
         style="font-style:normal;font-variant:normal;font-weight:bold;font-stretch:normal;font-size:74.66666412px;font-family:sans-serif;-inkscape-font-specification:'sans-serif Bold';fill:#cccccc;fill-opacity:1"
         id="path4755" />
      <path
         d="m 481.09766,279.56077 q -2.11459,0.54687 -4.48438,0.83854 -2.36979,0.32812 -5.79687,0.32812 -7.65625,0 -11.41146,-3.09896 -3.71875,-3.09895 -3.71875,-10.60937 v -19.14063 h -5.39584 v -8.89583 h 5.39584 v -11.70312 h 13.125 v 11.70312 h 12.28646 v 8.89583 H 468.8112 v 14.51042 q 0,2.15104 0.0365,3.75521 0.0365,1.60417 0.58333,2.88021 0.51042,1.27604 1.78646,2.04166 1.3125,0.72917 3.79166,0.72917 1.02084,0 2.66146,-0.4375 1.67709,-0.4375 2.33334,-0.80208 h 1.09375 z"
         style="font-style:normal;font-variant:normal;font-weight:bold;font-stretch:normal;font-size:74.66666412px;font-family:sans-serif;-inkscape-font-specification:'sans-serif Bold';fill:#cccccc;fill-opacity:1"
         id="path4757" />
      <path
         d="m 530.02473,279.92535 h -13.19792 v -20.30729 q 0,-2.47917 -0.25521,-4.92188 -0.25521,-2.47916 -0.875,-3.64583 -0.72916,-1.34896 -2.15104,-1.96875 -1.38541,-0.61979 -3.90104,-0.61979 -1.78646,0 -3.64583,0.58333 -1.82292,0.58333 -3.97396,1.85938 v 29.02083 h -13.125 v -56.72917 h 13.125 v 20.3073 q 3.5,-2.73438 6.70833,-4.19271 3.24479,-1.45834 7.18229,-1.45834 6.63542,0 10.35417,3.86459 3.75521,3.86458 3.75521,11.55729 z"
         style="font-style:normal;font-variant:normal;font-weight:bold;font-stretch:normal;font-size:74.66666412px;font-family:sans-serif;-inkscape-font-specification:'sans-serif Bold';fill:#cccccc;fill-opacity:1"
         id="path4759" />
      <path
         d="m 566.92057,269.24306 v -8.53125 q -2.66146,0.21875 -5.76042,0.61979 -3.09896,0.36458 -4.70312,0.875 -1.96875,0.61979 -3.02605,1.82292 -1.02083,1.16666 -1.02083,3.09895 0,1.27605 0.21875,2.07813 0.21875,0.80208 1.09375,1.53125 0.83854,0.72917 2.00521,1.09375 1.16667,0.32812 3.64583,0.32812 1.96875,0 3.97396,-0.80208 2.04167,-0.80208 3.57292,-2.11458 z m 0,6.34375 q -1.05729,0.80208 -2.625,1.93229 -1.56771,1.13021 -2.95313,1.78646 -1.93229,0.875 -4.01041,1.27604 -2.07813,0.4375 -4.5573,0.4375 -5.83333,0 -9.77083,-3.60938 -3.9375,-3.60937 -3.9375,-9.22395 0,-4.48438 2.00521,-7.32813 2.00521,-2.84375 5.6875,-4.48437 3.64583,-1.64063 9.04167,-2.33334 5.39583,-0.69271 11.1927,-1.02083 v -0.21875 q 0,-3.39063 -2.77083,-4.66667 -2.77083,-1.3125 -8.16667,-1.3125 -3.24479,0 -6.92708,1.16667 -3.68229,1.13021 -5.28646,1.75 h -1.20312 v -9.88021 q 2.07812,-0.54687 6.74479,-1.27604 4.70312,-0.76562 9.40625,-0.76562 11.19271,0 16.15104,3.46354 4.99479,3.42708 4.99479,10.79166 v 27.85417 h -13.01562 z"
         style="font-style:normal;font-variant:normal;font-weight:bold;font-stretch:normal;font-size:74.66666412px;font-family:sans-serif;-inkscape-font-specification:'sans-serif Bold';fill:#cccccc;fill-opacity:1"
         id="path4761" />
      <path
         d="m 633.12888,279.92535 h -13.19791 v -20.30729 q 0,-2.47917 -0.25521,-4.92188 -0.25521,-2.47916 -0.875,-3.64583 -0.72917,-1.34896 -2.15104,-1.96875 -1.38542,-0.61979 -3.90104,-0.61979 -1.78646,0 -3.64584,0.58333 -1.82291,0.58333 -3.97395,1.85938 v 29.02083 h -13.125 v -40.94271 h 13.125 v 4.52084 q 3.5,-2.73438 6.70833,-4.19271 3.24479,-1.45834 7.18229,-1.45834 6.63542,0 10.35417,3.86459 3.7552,3.86458 3.7552,11.55729 z"
         style="font-style:normal;font-variant:normal;font-weight:bold;font-stretch:normal;font-size:74.66666412px;font-family:sans-serif;-inkscape-font-specification:'sans-serif Bold';fill:#cccccc;fill-opacity:1"
         id="path4763" />
    </g>
    <path
       style="fill:#0085ff;fill-opacity:1;stroke:#0085ff;stroke-width:1.06503391;stroke-miterlimit:4;stroke-dasharray:none;stroke-opacity:1"
       d="M 60.766617,147.20076 C 48.588396,141.2543 47.99548,134.98519 57.332065,110.88674 65.111898,90.806403 71.072681,71.847613 72.072949,64.002125 c 0.616163,-4.832903 0.408979,-6.067814 -1.219202,-7.266926 -1.767444,-1.301652 -2.39392,-1.012184 -6.331976,2.925722 -2.461037,2.460914 -4.370493,5.408858 -4.370493,6.747416 0,2.341028 -0.169694,2.377108 -11.175331,2.377108 -9.268306,0 -11.295386,-0.277635 -11.878899,-1.627032 -0.38698,-0.894866 0.376815,-5.180168 1.697306,-9.52291 l 2.400915,-7.895876 h 42.80175 c 30.614651,0 42.801791,0.316885 42.801791,1.112905 0,2.707626 -11.94298,42.632041 -16.0095,53.518538 -11.136867,29.81444 -25.038435,45.66504 -39.980892,45.58632 -2.675808,-0.0131 -6.671577,-1.11099 -10.041801,-2.75663 z"
       id="path4635"
       inkscape:connector-curvature="0" />
  </g>
</svg>
